<mxfile host="app.diagrams.net" agent="Mozilla/5.0 (Windows NT 10.0; Win64; x64; rv:136.0) Gecko/20100101 Firefox/136.0" version="26.1.0">
  <diagram name="1 oldal" id="ZEDm-vvKbvSJ-1KInhfD">
    <mxGraphModel dx="803" dy="511" grid="1" gridSize="10" guides="1" tooltips="1" connect="1" arrows="1" fold="1" page="1" pageScale="1" pageWidth="827" pageHeight="1169" math="0" shadow="0">
      <root>
        <mxCell id="0" />
        <mxCell id="1" parent="0" />
        <mxCell id="0B5QaediykWCeu3tX8Vy-1" style="rounded=0;orthogonalLoop=1;jettySize=auto;html=1;exitX=0.5;exitY=1;exitDx=0;exitDy=0;entryX=0.5;entryY=0;entryDx=0;entryDy=0;" edge="1" parent="1" source="lsv2QbgZ2vg8ruysgdPq-1" target="lsv2QbgZ2vg8ruysgdPq-11">
          <mxGeometry relative="1" as="geometry" />
        </mxCell>
        <mxCell id="0B5QaediykWCeu3tX8Vy-2" style="rounded=0;orthogonalLoop=1;jettySize=auto;html=1;exitX=0.5;exitY=1;exitDx=0;exitDy=0;entryX=0.5;entryY=0;entryDx=0;entryDy=0;" edge="1" parent="1" source="lsv2QbgZ2vg8ruysgdPq-1" target="lsv2QbgZ2vg8ruysgdPq-12">
          <mxGeometry relative="1" as="geometry" />
        </mxCell>
        <mxCell id="0B5QaediykWCeu3tX8Vy-3" style="rounded=0;orthogonalLoop=1;jettySize=auto;html=1;exitX=0.5;exitY=1;exitDx=0;exitDy=0;entryX=0.5;entryY=0;entryDx=0;entryDy=0;" edge="1" parent="1" source="lsv2QbgZ2vg8ruysgdPq-1" target="lsv2QbgZ2vg8ruysgdPq-13">
          <mxGeometry relative="1" as="geometry" />
        </mxCell>
        <mxCell id="lsv2QbgZ2vg8ruysgdPq-1" value="Termék" style="rounded=0;whiteSpace=wrap;html=1;" parent="1" vertex="1">
          <mxGeometry x="200" y="240" width="120" height="40" as="geometry" />
        </mxCell>
        <mxCell id="lsv2QbgZ2vg8ruysgdPq-5" value="T-GY" style="rhombus;whiteSpace=wrap;html=1;" parent="1" vertex="1">
          <mxGeometry x="354" y="230" width="60" height="60" as="geometry" />
        </mxCell>
        <mxCell id="lsv2QbgZ2vg8ruysgdPq-6" value="Gyártó" style="rounded=0;whiteSpace=wrap;html=1;" parent="1" vertex="1">
          <mxGeometry x="440" y="240" width="120" height="40" as="geometry" />
        </mxCell>
        <mxCell id="lsv2QbgZ2vg8ruysgdPq-7" value="" style="endArrow=classic;html=1;rounded=0;entryX=0;entryY=0.5;entryDx=0;entryDy=0;exitX=1;exitY=0.5;exitDx=0;exitDy=0;" parent="1" source="lsv2QbgZ2vg8ruysgdPq-5" target="lsv2QbgZ2vg8ruysgdPq-6" edge="1">
          <mxGeometry width="50" height="50" relative="1" as="geometry">
            <mxPoint x="400" y="230" as="sourcePoint" />
            <mxPoint x="440" y="230" as="targetPoint" />
          </mxGeometry>
        </mxCell>
        <mxCell id="lsv2QbgZ2vg8ruysgdPq-10" value="" style="endArrow=classic;html=1;rounded=0;exitX=0;exitY=0.5;exitDx=0;exitDy=0;entryX=1;entryY=0.5;entryDx=0;entryDy=0;" parent="1" source="lsv2QbgZ2vg8ruysgdPq-5" target="lsv2QbgZ2vg8ruysgdPq-1" edge="1">
          <mxGeometry width="50" height="50" relative="1" as="geometry">
            <mxPoint x="368" y="210" as="sourcePoint" />
            <mxPoint x="314" y="210" as="targetPoint" />
          </mxGeometry>
        </mxCell>
        <mxCell id="lsv2QbgZ2vg8ruysgdPq-11" value="Tkód" style="ellipse;whiteSpace=wrap;html=1;" parent="1" vertex="1">
          <mxGeometry x="90" y="360" width="100" height="40" as="geometry" />
        </mxCell>
        <mxCell id="lsv2QbgZ2vg8ruysgdPq-12" value="Név" style="ellipse;whiteSpace=wrap;html=1;" parent="1" vertex="1">
          <mxGeometry x="200" y="360" width="100" height="40" as="geometry" />
        </mxCell>
        <mxCell id="lsv2QbgZ2vg8ruysgdPq-13" value="Ear" style="ellipse;whiteSpace=wrap;html=1;" parent="1" vertex="1">
          <mxGeometry x="314" y="360" width="100" height="40" as="geometry" />
        </mxCell>
        <mxCell id="lsv2QbgZ2vg8ruysgdPq-14" value="Név" style="ellipse;whiteSpace=wrap;html=1;" parent="1" vertex="1">
          <mxGeometry x="650" y="350" width="100" height="40" as="geometry" />
        </mxCell>
        <mxCell id="lsv2QbgZ2vg8ruysgdPq-28" style="rounded=0;orthogonalLoop=1;jettySize=auto;html=1;exitX=0.5;exitY=1;exitDx=0;exitDy=0;entryX=0.5;entryY=0;entryDx=0;entryDy=0;" parent="1" source="lsv2QbgZ2vg8ruysgdPq-15" target="lsv2QbgZ2vg8ruysgdPq-17" edge="1">
          <mxGeometry relative="1" as="geometry" />
        </mxCell>
        <mxCell id="lsv2QbgZ2vg8ruysgdPq-29" style="rounded=0;orthogonalLoop=1;jettySize=auto;html=1;exitX=0.5;exitY=1;exitDx=0;exitDy=0;entryX=0.5;entryY=0;entryDx=0;entryDy=0;" parent="1" source="lsv2QbgZ2vg8ruysgdPq-15" target="lsv2QbgZ2vg8ruysgdPq-18" edge="1">
          <mxGeometry relative="1" as="geometry" />
        </mxCell>
        <mxCell id="lsv2QbgZ2vg8ruysgdPq-30" style="rounded=0;orthogonalLoop=1;jettySize=auto;html=1;exitX=0.5;exitY=1;exitDx=0;exitDy=0;entryX=0.5;entryY=0;entryDx=0;entryDy=0;" parent="1" source="lsv2QbgZ2vg8ruysgdPq-15" target="lsv2QbgZ2vg8ruysgdPq-19" edge="1">
          <mxGeometry relative="1" as="geometry" />
        </mxCell>
        <mxCell id="lsv2QbgZ2vg8ruysgdPq-15" value="Postacím" style="ellipse;whiteSpace=wrap;html=1;" parent="1" vertex="1">
          <mxGeometry x="540" y="350" width="100" height="40" as="geometry" />
        </mxCell>
        <mxCell id="lsv2QbgZ2vg8ruysgdPq-16" value="Adószám" style="ellipse;whiteSpace=wrap;html=1;" parent="1" vertex="1">
          <mxGeometry x="434" y="350" width="100" height="40" as="geometry" />
        </mxCell>
        <mxCell id="lsv2QbgZ2vg8ruysgdPq-17" value="Irszám" style="ellipse;whiteSpace=wrap;html=1;" parent="1" vertex="1">
          <mxGeometry x="440" y="440" width="100" height="40" as="geometry" />
        </mxCell>
        <mxCell id="lsv2QbgZ2vg8ruysgdPq-18" value="Város" style="ellipse;whiteSpace=wrap;html=1;" parent="1" vertex="1">
          <mxGeometry x="550" y="440" width="100" height="40" as="geometry" />
        </mxCell>
        <mxCell id="lsv2QbgZ2vg8ruysgdPq-19" value="Házszám" style="ellipse;whiteSpace=wrap;html=1;" parent="1" vertex="1">
          <mxGeometry x="660" y="440" width="100" height="40" as="geometry" />
        </mxCell>
        <object label="&lt;div&gt;Telephely&lt;/div&gt;" Telephely="" id="lsv2QbgZ2vg8ruysgdPq-20">
          <mxCell style="ellipse;whiteSpace=wrap;html=1;fontSize=14;" parent="1" vertex="1">
            <mxGeometry x="600" y="220" width="120" height="80" as="geometry" />
          </mxCell>
        </object>
        <mxCell id="lsv2QbgZ2vg8ruysgdPq-21" value="" style="endArrow=none;html=1;rounded=0;entryX=0;entryY=0.5;entryDx=0;entryDy=0;exitX=1;exitY=0.5;exitDx=0;exitDy=0;startFill=0;jumpStyle=none;startArrow=classic;" parent="1" source="lsv2QbgZ2vg8ruysgdPq-6" target="lsv2QbgZ2vg8ruysgdPq-20" edge="1">
          <mxGeometry width="50" height="50" relative="1" as="geometry">
            <mxPoint x="575" y="230" as="sourcePoint" />
            <mxPoint x="625" y="180" as="targetPoint" />
          </mxGeometry>
        </mxCell>
        <mxCell id="lsv2QbgZ2vg8ruysgdPq-25" value="" style="endArrow=none;html=1;rounded=0;entryX=0.5;entryY=1;entryDx=0;entryDy=0;exitX=0.5;exitY=0;exitDx=0;exitDy=0;startFill=1;startArrow=classic;" parent="1" source="lsv2QbgZ2vg8ruysgdPq-16" target="lsv2QbgZ2vg8ruysgdPq-6" edge="1">
          <mxGeometry width="50" height="50" relative="1" as="geometry">
            <mxPoint x="420" y="350" as="sourcePoint" />
            <mxPoint x="470" y="300" as="targetPoint" />
          </mxGeometry>
        </mxCell>
        <mxCell id="lsv2QbgZ2vg8ruysgdPq-26" value="" style="endArrow=none;html=1;rounded=0;exitX=0.5;exitY=0;exitDx=0;exitDy=0;entryX=0.5;entryY=1;entryDx=0;entryDy=0;startFill=1;startArrow=classic;" parent="1" source="lsv2QbgZ2vg8ruysgdPq-15" target="lsv2QbgZ2vg8ruysgdPq-6" edge="1">
          <mxGeometry width="50" height="50" relative="1" as="geometry">
            <mxPoint x="494" y="360" as="sourcePoint" />
            <mxPoint x="530" y="290" as="targetPoint" />
          </mxGeometry>
        </mxCell>
        <mxCell id="lsv2QbgZ2vg8ruysgdPq-27" value="" style="endArrow=none;html=1;rounded=0;exitX=0.5;exitY=0;exitDx=0;exitDy=0;entryX=0.5;entryY=1;entryDx=0;entryDy=0;startFill=1;startArrow=classic;" parent="1" source="lsv2QbgZ2vg8ruysgdPq-14" target="lsv2QbgZ2vg8ruysgdPq-6" edge="1">
          <mxGeometry width="50" height="50" relative="1" as="geometry">
            <mxPoint x="645" y="360" as="sourcePoint" />
            <mxPoint x="500" y="280" as="targetPoint" />
          </mxGeometry>
        </mxCell>
      </root>
    </mxGraphModel>
  </diagram>
</mxfile>
